<svg width="120" height="140" viewBox="0 0 120 140" fill="none" xmlns="http://www.w3.org/2000/svg">
  <!-- Halo -->
  <g transform="translate(60, 25)">
    <circle cx="0" cy="0" r="3" fill="none" stroke="#382417" stroke-width="2"/>
    <circle cx="-8" cy="-3" r="2" fill="none" stroke="#382417" stroke-width="1.5"/>
    <circle cx="8" cy="-3" r="2" fill="none" stroke="#382417" stroke-width="1.5"/>
    <circle cx="-12" cy="2" r="1.5" fill="none" stroke="#382417" stroke-width="1.5"/>
    <circle cx="12" cy="2" r="1.5" fill="none" stroke="#382417" stroke-width="1.5"/>
    <circle cx="-6" cy="8" r="1.5" fill="none" stroke="#382417" stroke-width="1.5"/>
    <circle cx="6" cy="8" r="1.5" fill="none" stroke="#382417" stroke-width="1.5"/>
  </g>
  
  <!-- Angel Head -->
  <circle cx="60" cy="50" r="18" fill="none" stroke="#382417" stroke-width="2"/>
  
  <!-- Eyes -->
  <circle cx="55" cy="47" r="1.5" fill="#382417"/>
  <circle cx="65" cy="47" r="1.5" fill="#382417"/>
  
  <!-- Wings -->
  <g transform="translate(60, 70)">
    <!-- Left Wing -->
    <path d="M -25 -10 Q -35 -15 -40 -5 Q -35 5 -25 0 Q -30 -5 -25 -10 Z" fill="none" stroke="#382417" stroke-width="2"/>
    <path d="M -20 -8 Q -28 -12 -32 -3 Q -28 3 -20 -2 Q -24 -5 -20 -8 Z" fill="none" stroke="#382417" stroke-width="1.5"/>
    <path d="M -15 -6 Q -22 -9 -25 -1 Q -22 4 -15 0 Q -18 -3 -15 -6 Z" fill="none" stroke="#382417" stroke-width="1.5"/>
    
    <!-- Right Wing -->
    <path d="M 25 -10 Q 35 -15 40 -5 Q 35 5 25 0 Q 30 -5 25 -10 Z" fill="none" stroke="#382417" stroke-width="2"/>
    <path d="M 20 -8 Q 28 -12 32 -3 Q 28 3 20 -2 Q 24 -5 20 -8 Z" fill="none" stroke="#382417" stroke-width="1.5"/>
    <path d="M 15 -6 Q 22 -9 25 -1 Q 22 4 15 0 Q 18 -3 15 -6 Z" fill="none" stroke="#382417" stroke-width="1.5"/>
  </g>
  
  <!-- Angel Body -->
  <path d="M 60 68 L 50 120 Q 50 125 55 125 L 65 125 Q 70 125 70 120 L 60 68 Z" fill="none" stroke="#382417" stroke-width="2"/>
  
  <!-- Decorative pattern on body -->
  <g transform="translate(60, 95)">
    <path d="M -8 0 Q -4 -3 0 0 Q 4 -3 8 0" fill="none" stroke="#382417" stroke-width="1.5"/>
    <path d="M -6 5 Q -3 2 0 5 Q 3 2 6 5" fill="none" stroke="#382417" stroke-width="1.5"/>
    <path d="M -4 10 Q -2 7 0 10 Q 2 7 4 10" fill="none" stroke="#382417" stroke-width="1.5"/>
  </g>
  
  <!-- Base/Platform -->
  <ellipse cx="60" cy="130" rx="15" ry="4" fill="none" stroke="#382417" stroke-width="2"/>
</svg>
